<?xml version="1.0" encoding="utf-8"?>
<!-- Generator: Adobe Illustrator 16.0.0, SVG Export Plug-In . SVG Version: 6.00 Build 0)  -->
<!DOCTYPE svg PUBLIC "-//W3C//DTD SVG 1.1//EN" "http://www.w3.org/Graphics/SVG/1.1/DTD/svg11.dtd">
<svg version="1.1" id="Layer_1" xmlns="http://www.w3.org/2000/svg" xmlns:xlink="http://www.w3.org/1999/xlink" x="0px" y="0px"
	 width="228.099px" height="85.917px" viewBox="0 0 228.099 85.917" enable-background="new 0 0 228.099 85.917"
	 xml:space="preserve">
<g>
	<g>
		<path fill="#4E85C4" d="M107.342,24.119v60.837h-11.88V0.96h16.56l13.559,50.277V0.96h11.76v83.996h-13.559L107.342,24.119z"/>
	</g>
	<g>
		<path fill="#4E85C4" d="M148.502,21.119C148.502,7.68,155.583,0,168.542,0c12.961,0,20.04,7.68,20.04,21.119v43.679
			c0,13.439-7.079,21.119-20.04,21.119c-12.959,0-20.039-7.68-20.039-21.119V21.119z M161.703,65.638c0,6,2.64,8.279,6.839,8.279
			c4.201,0,6.84-2.279,6.84-8.279V20.279c0-6-2.639-8.28-6.84-8.28c-4.199,0-6.839,2.28-6.839,8.28V65.638z"/>
	</g>
	<g>
		<path fill="#4E85C4" d="M198.919,85.815v-7.172c0-4.533,2.514-6.76,7.13-6.76h14.59c4.616,0,7.13,2.227,7.13,6.76v7.172H198.919z
			 M203.041,81.281h20.607v-2.556c0-1.441-0.742-2.308-2.803-2.308h-15.002c-2.061,0-2.803,0.866-2.803,2.308V81.281z"/>
		<path fill="#4E85C4" d="M211.078,64.468v-6.223h4.121v6.223h8.449v-7.83h4.121v12.364h-28.85V56.638h4.121v7.83H211.078z"/>
		<path fill="#4E85C4" d="M198.589,47.737c0-4.41,2.638-6.677,7.254-6.677h0.906v4.286h-1.194c-2.062,0-2.845,0.824-2.845,2.267
			s0.783,2.267,2.845,2.267c5.935,0,7.047-8.861,15.29-8.861c4.616,0,7.254,2.308,7.254,6.759s-2.638,6.76-7.254,6.76h-1.772v-4.287
			h2.061c2.061,0,2.803-0.906,2.803-2.35c0-1.441-0.742-2.349-2.803-2.349c-5.935,0-7.047,8.86-15.29,8.86
			C201.227,54.413,198.589,52.147,198.589,47.737z"/>
		<path fill="#4E85C4" d="M198.919,38.425v-4.534h28.85v4.534H198.919z"/>
		<path fill="#4E85C4" d="M211.696,23.795v-6.347h9.149c4.616,0,7.254,2.308,7.254,6.759s-2.638,6.759-7.254,6.759h-15.002
			c-4.616,0-7.254-2.308-7.254-6.759s2.638-6.759,7.254-6.759h2.803v4.286h-3.091c-2.062,0-2.845,0.907-2.845,2.35
			c0,1.442,0.783,2.349,2.845,2.349h15.578c2.061,0,2.803-0.907,2.803-2.349c0-1.443-0.742-2.35-2.803-2.35h-5.316v2.061H211.696z"
			/>
		<path fill="#4E85C4" d="M206.874,10.484h20.896v4.08h-28.85V8.877l17.269-4.657h-17.269V0.181h28.85v4.657L206.874,10.484z"/>
	</g>
	<rect x="1.116" y="0.956" fill="#4E85C4" width="85" height="84"/>
	<path fill="#FFFFFF" d="M38.585,61.103c11.621,7.068,25.09,3.166,31.715-7.723c6.625-10.891,3.896-24.646-7.724-31.714
		L38.585,61.103z"/>
	<path fill="#FFFFFF" d="M45.644,25.809c-10.563-6.425-25.091-3.165-31.715,7.724c-6.625,10.89-2.841,25.287,7.724,31.714
		L45.644,25.809z"/>
</g>
</svg>
