<?xml version="1.0" encoding="utf-8"?>
<!-- Generator: Adobe Illustrator 16.0.0, SVG Export Plug-In . SVG Version: 6.00 Build 0)  -->
<!DOCTYPE svg PUBLIC "-//W3C//DTD SVG 1.1//EN" "http://www.w3.org/Graphics/SVG/1.1/DTD/svg11.dtd">
<svg version="1.1" id="Layer_1" xmlns="http://www.w3.org/2000/svg" xmlns:xlink="http://www.w3.org/1999/xlink" x="0px" y="0px"
	 width="301.575px" height="51.801px" viewBox="-36.994 17.333 301.575 51.801"
	 enable-background="new -36.994 17.333 301.575 51.801" xml:space="preserve">
<g>
	<path fill="#4E85C4" d="M57.632,29.94v36.585c0,0.805-0.704,1.609-1.608,1.609h-3.216c-0.905,0-1.608-0.805-1.608-1.609V29.94
		c0-2.814-2.312-5.126-5.126-5.126c-2.915,0-5.227,2.312-5.227,5.126v36.585c0,0.805-0.703,1.609-1.608,1.609h-3.216
		c-0.905,0-1.608-0.805-1.608-1.609V29.94c0-6.332,5.227-11.559,11.659-11.559C52.406,18.381,57.632,23.608,57.632,29.94z"/>
	<path fill="#4E85C4" d="M89.192,29.94v26.534c0,6.434-5.227,11.66-11.559,11.66c-6.433,0-11.659-5.227-11.659-11.66V29.94
		c0-6.332,5.227-11.559,11.659-11.559C83.966,18.381,89.192,23.608,89.192,29.94z M82.76,29.94c0-2.814-2.312-5.126-5.126-5.126
		c-2.915,0-5.227,2.312-5.227,5.126v26.534c0,2.916,2.312,5.227,5.227,5.227c2.814,0,5.126-2.311,5.126-5.227V29.94z"/>
	<path fill="#4E85C4" d="M135.225,30.041v26.434c0,6.434-5.126,11.66-11.559,11.66h-8.443c-1.708,0-3.216-1.508-3.216-3.217v-43.32
		c0-1.809,1.508-3.216,3.216-3.216h8.443C130.099,18.381,135.225,23.608,135.225,30.041z M128.793,30.041
		c0-2.915-2.312-5.227-5.126-5.227h-5.227v36.787h5.227c2.814,0,5.126-2.312,5.126-5.127V30.041z"/>
	<path fill="#4E85C4" d="M150.001,24.814v15.177h8.744c0.904,0,1.607,0.704,1.607,1.608v3.217c0,0.904-0.703,1.607-1.607,1.607
		h-8.744v15.277h8.744c0.904,0,1.607,0.704,1.607,1.609v3.215c0,0.905-0.703,1.609-1.607,1.609h-11.961
		c-1.809,0-3.217-1.508-3.217-3.217v-43.32c0-1.809,1.408-3.216,3.217-3.216h11.961c0.904,0,1.607,0.704,1.607,1.608v3.216
		c0,0.904-0.703,1.608-1.607,1.608H150.001z"/>
	<path fill="#4E85C4" d="M181.36,33.357V29.94c0-2.814-2.312-5.126-5.126-5.126s-5.126,2.312-5.126,5.126
		c0,1.307,0,1.307,0.302,1.709l13.971,18.493c2.412,3.217,2.412,3.217,2.412,6.434c0,6.332-5.227,11.559-11.559,11.559
		s-11.559-5.227-11.559-11.559v-3.418c0-0.904,0.704-1.607,1.608-1.607h3.217c0.904,0,1.607,0.703,1.607,1.607v3.418
		c0,2.814,2.312,5.125,5.126,5.125s5.126-2.311,5.126-5.125c0-1.307,0-1.307-0.301-1.709l-13.972-18.494
		c-2.412-3.216-2.412-3.216-2.412-6.433c0-6.332,5.227-11.559,11.559-11.559s11.559,5.227,11.559,11.559v3.417
		c0,0.905-0.704,1.608-1.608,1.608h-3.216C182.063,34.966,181.36,34.262,181.36,33.357z"/>
	<path fill="#4E85C4" d="M201.563,66.525c0,0.905-0.703,1.609-1.608,1.609h-3.216c-0.905,0-1.609-0.704-1.609-1.609V19.99
		c0-0.905,0.704-1.608,1.609-1.608h3.216c0.804,0,1.608,0.704,1.608,1.608V66.525z"/>
	<path fill="#4E85C4" d="M226.589,33.458v-3.417c0-2.915-2.312-5.126-5.126-5.126c-2.813,0-5.126,2.211-5.126,5.126v26.635
		c0,2.814,2.312,5.127,5.126,5.127c2.814,0,5.126-2.312,5.126-5.127V46.324h-3.518c-0.904,0-1.608-0.704-1.608-1.508v-3.217
		c0-0.904,0.704-1.608,1.608-1.608h8.342c0.905,0,1.609,0.704,1.609,1.608v15.076c0,6.332-5.227,11.459-11.56,11.459
		c-6.332,0-11.559-5.127-11.559-11.459V30.041c0-6.433,5.227-11.559,11.559-11.559c6.333,0,11.56,5.126,11.56,11.559v3.417
		c0,0.904-0.704,1.608-1.609,1.608h-3.216C227.292,35.066,226.589,34.362,226.589,33.458z"/>
	<path fill="#4E85C4" d="M264.581,29.94v36.585c0,0.805-0.704,1.609-1.608,1.609h-3.216c-0.905,0-1.609-0.805-1.609-1.609V29.94
		c0-2.814-2.311-5.126-5.125-5.126c-2.915,0-5.227,2.312-5.227,5.126v36.585c0,0.805-0.703,1.609-1.608,1.609h-3.216
		c-0.905,0-1.609-0.805-1.609-1.609V29.94c0-6.332,5.227-11.559,11.66-11.559C259.354,18.381,264.581,23.608,264.581,29.94z"/>
</g>
<g>
	<path fill="#4E85C4" d="M-2.821,43.964l-19.277,7.468c-1.171,0.453-2.501,0.13-3.333-0.812c-0.831-0.942-0.987-2.302-0.392-3.408
		l16.095-29.865c-0.173-0.003-0.345-0.013-0.52-0.013c-14.22,0-25.747,11.527-25.747,25.747c0,12.641,9.112,23.146,21.125,25.326
		L-2.821,43.964z"/>
	<path fill="#4E85C4" d="M-3.404,18.26l-13.279,24.641l18.306-7.092c0.046-0.018,0.093-0.035,0.14-0.05l0.548-0.182
		c1.149-0.38,2.412-0.034,3.206,0.878c0.794,0.912,0.963,2.211,0.428,3.296L-8.35,68.75C4.983,67.778,15.5,56.662,15.5,43.08
		C15.5,31.231,7.492,21.257-3.404,18.26z"/>
</g>
</svg>
